<?xml version="1.0" encoding="UTF-8"?>
<svg xmlns="http://www.w3.org/2000/svg" xmlns:xlink="http://www.w3.org/1999/xlink" width="16px" height="16px" viewBox="0 0 16 16" version="1.1">
<g id="surface1">
<path style=" stroke:none;fill-rule:nonzero;fill:rgb(86.27451%,15.686275%,7.843137%);fill-opacity:1;" d="M 8 16 C 3.585938 16 0 12.414062 0 8 C 0 3.585938 3.585938 0 8 0 C 12.414062 0 16 3.585938 16 8 C 16 12.414062 12.414062 16 8 16 Z M 8 1.144531 C 4.21875 1.144531 1.144531 4.21875 1.144531 8 C 1.144531 11.78125 4.21875 14.855469 8 14.855469 C 11.78125 14.855469 14.855469 11.78125 14.855469 8 C 14.855469 4.21875 11.78125 1.144531 8 1.144531 Z M 8 1.144531 "/>
<path style=" stroke:none;fill-rule:nonzero;fill:rgb(86.27451%,15.686275%,7.843137%);fill-opacity:1;" d="M 10.855469 11.429688 C 10.710938 11.429688 10.566406 11.371094 10.453125 11.261719 L 4.738281 5.546875 C 4.515625 5.324219 4.515625 4.960938 4.738281 4.738281 C 4.960938 4.515625 5.324219 4.515625 5.546875 4.738281 L 11.261719 10.453125 C 11.484375 10.675781 11.484375 11.039062 11.261719 11.261719 C 11.148438 11.371094 11.003906 11.429688 10.855469 11.429688 Z M 10.855469 11.429688 "/>
<path style=" stroke:none;fill-rule:nonzero;fill:rgb(86.27451%,15.686275%,7.843137%);fill-opacity:1;" d="M 5.144531 11.429688 C 4.996094 11.429688 4.851562 11.371094 4.738281 11.261719 C 4.515625 11.039062 4.515625 10.675781 4.738281 10.453125 L 10.453125 4.738281 C 10.675781 4.515625 11.039062 4.515625 11.261719 4.738281 C 11.484375 4.960938 11.484375 5.324219 11.261719 5.546875 L 5.546875 11.261719 C 5.433594 11.371094 5.289062 11.429688 5.144531 11.429688 Z M 5.144531 11.429688 "/>
</g>
</svg>
